<?xml version="1.0" standalone="no"?>
<!DOCTYPE svg PUBLIC "-//W3C//DTD SVG 20010904//EN"
 "http://www.w3.org/TR/2001/REC-SVG-20010904/DTD/svg10.dtd">
<svg version="1.0"
    xmlns="http://www.w3.org/2000/svg" width="1024.000000pt" height="1024.000000pt" viewBox="0 0 2048.000000 2048.000000" preserveAspectRatio="xMidYMid meet">

    <g transform="translate(-2048.000000,1024.000000) scale(0.300000,-0.300000)" stroke="none" fill="#00ADD8">
        <path fill="none" d="M0 10240 l0 -10240 10240 0 10240 0 0 10240 0 10240 -10240 0 -10240
0 0 -10240z"/>
        <path d="m10748 2353 c4 -10 32 -112 62 -227 34 -131 61 -212 70 -217 8 -4
87 -30 175 -58 143 -46 285 -109 431 -191 l40 -23 145 85 c231 136 258 150
271 142 21 -12 437 -417 441 -429 5 -11 -203 -359 -231 -387 -9 -9 -131 -58
-269 -108 -261 -93 -324 -106 -376 -78 -12 6 -64 49 -117 96 -214 192 -454
312 -714 359 -122 22 -360 22 -486 -1 -437 -78 -824 -364 -1020 -755 -162
-323 -189 -735 -71 -1084 86 -254 277 -510 499 -670 169 -122 404 -220 599
-251 129 -21 350 -21 468 0 187 32 393 116 569 231 100 66 288 257 365 372
104 156 181 334 197 451 l7 50 -139 1 c-77 1 -265 2 -419 3 -239 1 -287 4
-330 19 -64 22 -118 66 -153 125 -24 42 -27 57 -27 137 0 107 18 150 91 214
83 73 65 71 818 71 659 0 670 0 713 -21 30 -14 52 -35 69 -66 l27 -44 -6 -202
c-3 -111 -10 -231 -17 -267 -17 -100 -66 -287 -95 -365 -28 -75 -126 -280
-170 -355 l-26 -46 120 -199 c67 -109 121 -204 121 -211 0 -11 -394 -408 -435
-438 -17 -12 -24 -11 -60 9 -22 12 -112 64 -200 115 l-159 93 -31 -18 c-152
-89 -337 -167 -515 -218 l-115 -33 -51 -199 c-28 -110 -54 -212 -57 -227 l-7
-28 -319 0 -319 0 -32 118 c-18 64 -45 166 -60 226 l-27 109 -85 23 c-154 41
-362 127 -519 214 l-55 31 -202 -115 c-110 -64 -207 -113 -214 -111 -7 3 -111
104 -232 224 l-219 218 122 201 c66 110 121 207 121 216 0 8 -14 39 -31 68
-65 109 -140 277 -180 403 -22 72 -44 137 -48 145 -7 13 -359 118 -403 119
-17 1 -18 23 -18 320 l0 318 178 52 c273 80 242 60 274 179 38 140 87 264 165
413 l66 127 -118 198 c-65 110 -120 203 -123 208 -5 10 83 100 300 308 l157
150 88 -52 c48 -29 136 -81 194 -116 59 -35 110 -64 115 -64 5 0 79 35 164 79
109 55 209 95 333 136 129 42 177 62 177 73 0 9 21 92 46 186 25 94 50 188 55
208 l10 37 132 4 c420 9 497 8 505 -10z m1518 -34 c16 -5 80 -62 144 -125 64
-63 121 -114 128 -114 6 0 64 51 129 113 65 63 128 119 140 125 55 30 119 1
184 -80 31 -40 39 -58 39 -91 0 -40 -5 -46 -202 -245 -112 -112 -215 -210
-230 -218 -32 -17 -76 -18 -115 -4 -32 12 -397 371 -419 412 -19 36 -18 77 4
110 33 50 128 124 164 127 4 1 19 -4 34 -10z m-1746 -1679 c18 -18 20 -33 20
-145 0 -174 -10 -189 -135 -215 -101 -21 -173 -68 -223 -148 -138 -216 -28
-474 228 -532 72 -17 87 -25 110 -63 17 -27 20 -51 20 -153 0 -159 -1 -159
-117 -158 -252 2 -498 156 -608 379 -98 198 -101 450 -6 650 109 232 373 401
629 404 49 1 66 -3 82 -19z m9106 -9574 c77 -34 145 -103 180 -180 57 -124 28
-275 -73"/>
        <!-- ...existing code... -->
    </g>
</svg>
